<svg xmlns="http://www.w3.org/2000/svg" viewBox="0 0 64 64">
  <defs>
    <linearGradient id="g1" x1="0%" y1="0%" x2="100%" y2="100%">
      <stop offset="0%" stop-color="#3B82F6"/>
      <stop offset="100%" stop-color="#8B5CF6"/>
    </linearGradient>
  </defs>
  <circle cx="32" cy="32" r="30" fill="url(#g1)"/>
  <path d="M32 18c-4.4 0-8 3.6-8 8 0 3.2 1.9 6 4.6 7.3C23.3 35 19 39.8 19 46h26c0-6.2-4.3-11-9.6-12.7C38.1 32 40 29.2 40 26c0-4.4-3.6-8-8-8zm0 4c2.2 0 4 1.8 4 4s-1.8 4-4 4-4-1.8-4-4 1.8-4 4-4z" fill="white" opacity="0.95"/>
  <circle cx="44" cy="20" r="6" fill="#F59E0B"/>
  <path d="M44 16v4h-2v-4h2zm0 6v2h-2v-2h2zm-3.5-4.5l1.5 1.5-1.4 1.4-1.5-1.5 1.4-1.4zm5.6 0l1.4 1.4-1.5 1.5-1.4-1.4 1.5-1.5zM40 19h2v2h-2v-2zm6 0h2v2h-2v-2z" fill="white" opacity="0.9"/>
</svg>
